<?xml version="1.0" encoding="UTF-8" standalone="no"?>
<svg xmlns="http://www.w3.org/2000/svg" xmlns:xlink="http://www.w3.org/1999/xlink" viewBox="0 0 32 32">

<circle cx="16" cy="16" r="16" fill="#7c529e"/>

<path d="M19.24 15.13C19.04 15.13 18.87 14.97 18.86 14.77C18.79 13.48 18.18 12.85 16.94 12.78C16.73 12.77 16.57 12.59 16.58 12.38C16.59 12.17 16.77 12.01 16.98 12.02C18.62 12.11 19.53 13.05 19.62 14.73C19.63 14.94 19.46 15.12 19.26 15.13C19.25 15.13 19.24 15.13 19.24 15.13"  fill="#fff" />
<path d="M21.19 15.79C21.18 15.79 21.18 15.79 21.18 15.79C20.97 15.78 20.8 15.61 20.81 15.4C20.84 14.1 20.46 13.04 19.67 12.18C18.88 11.31 17.8 10.84 16.35 10.73C16.14 10.72 15.98 10.54 16 10.33C16.02 10.12 16.2 9.96 16.41 9.98C18.03 10.09 19.32 10.66 20.23 11.66C21.15 12.67 21.6 13.93 21.57 15.41C21.56 15.62 21.39 15.79 21.19 15.79"  fill="#fff"/>
<path d="M22.81 16.19C22.79 13.86 22.12 12.09 20.76 10.76C19.42 9.45 17.72 8.78 15.71 8.76C15.5 8.76 15.33 8.59 15.33 8.38C15.33 8.17 15.5 8 15.71 8C15.71 8 15.72 8 15.72 8C17.93 8.02 19.8 8.76 21.29 10.21C22.78 11.67 23.55 13.68 23.57 16.19C23.57 16.4 23.4 16.57 23.19 16.57C23.19 16.57 23.19 16.57 23.19 16.57C22.94 16.46 22.81 16.33 22.81 16.19Z" fill="#fff"/>
<path d="M17.53 19.85C17.53 19.85 18.07 19.9 18.36 19.54C18.41 19.47 18.86 18.91 18.92 18.83C19.19 18.48 19.85 18.26 20.49 18.62C20.84 18.82 21.48 19.21 21.88 19.51C22.31 19.82 23.18 20.55 23.18 20.55C23.6 20.9 23.69 21.41 23.41 21.96C23.41 21.96 23.41 21.96 23.41 21.97C23.12 22.48 22.73 22.96 22.24 23.41C22.23 23.41 22.23 23.41 22.23 23.41C21.82 23.75 21.43 23.94 21.04 23.99C20.99 24 20.94 24 20.87 24C20.7 24 20.53 23.98 20.36 23.92C20.36 23.92 20.35 23.91 20.35 23.9C19.75 23.73 18.75 23.31 17.08 22.39C16 21.8 15.1 21.19 14.34 20.58C13.94 20.26 13.53 19.9 13.11 19.49C13.09 19.47 13.08 19.46 13.07 19.45C13.05 19.43 13.04 19.42 13.03 19.4C13.03 19.4 13.03 19.4 13.03 19.4C13.03 19.4 13.03 19.4 13.03 19.4C13.01 19.39 13 19.38 12.98 19.36C12.97 19.35 12.96 19.33 12.94 19.32C12.53 18.9 12.16 18.49 11.85 18.09C11.24 17.33 10.63 16.43 10.04 15.34C9.12 13.68 8.7 12.68 8.53 12.08C8.53 12.08 8.51 12.07 8.51 12.07C8.45 11.9 8.43 11.73 8.43 11.56C8.43 11.49 8.43 11.44 8.44 11.39C8.49 11 8.68 10.6 9.01 10.2C9.02 10.2 9.02 10.2 9.02 10.19C9.47 9.7 9.95 9.31 10.46 9.02C10.47 9.02 10.47 9.02 10.47 9.02C11.02 8.74 11.53 8.83 11.88 9.25C11.88 9.25 12.61 10.12 12.92 10.55C13.22 10.95 13.61 11.59 13.81 11.94C14.17 12.58 13.95 13.24 13.59 13.51C13.52 13.56 12.96 14.01 12.89 14.07C12.53 14.36 12.58 14.89 12.58 14.89C12.58 14.89 13.62 18.85 17.53 19.85" fill="#fff" />
</svg>